<mxfile host="Electron" modified="2024-02-05T16:02:47.769Z" agent="Mozilla/5.0 (Macintosh; Intel Mac OS X 10_15_7) AppleWebKit/537.36 (KHTML, like Gecko) draw.io/23.0.2 Chrome/120.0.6099.109 Electron/28.1.0 Safari/537.36" etag="xObP5hlXo9MbE6cLoZA2" version="23.0.2" type="device">
  <diagram id="Vphf9H5Bd-LTepOV9KM0" name="Page-1">
    <mxGraphModel dx="2110" dy="1011" grid="1" gridSize="10" guides="1" tooltips="1" connect="1" arrows="1" fold="1" page="1" pageScale="1" pageWidth="3300" pageHeight="4681" math="0" shadow="0">
      <root>
        <mxCell id="0" />
        <mxCell id="1" parent="0" />
        <mxCell id="azlYYLiaOAXbLuff8arX-147" value="Legend" style="swimlane;fontSize=15;fillColor=default;swimlaneFillColor=default;" parent="1" vertex="1">
          <mxGeometry x="290" y="130" width="320" height="350" as="geometry">
            <mxRectangle x="180" y="280" width="90" height="23" as="alternateBounds" />
          </mxGeometry>
        </mxCell>
        <mxCell id="azlYYLiaOAXbLuff8arX-136" value="" style="whiteSpace=wrap;html=1;verticalAlign=top;fillColor=#f5f5f5;strokeColor=#666666;aspect=fixed;fontColor=#333333;" parent="azlYYLiaOAXbLuff8arX-147" vertex="1">
          <mxGeometry x="20" y="40" width="40" height="40" as="geometry" />
        </mxCell>
        <mxCell id="azlYYLiaOAXbLuff8arX-137" value="3rd party service" style="text;html=1;align=left;verticalAlign=middle;resizable=0;points=[];autosize=1;strokeColor=none;fillColor=none;fontSize=15;" parent="azlYYLiaOAXbLuff8arX-147" vertex="1">
          <mxGeometry x="70" y="50" width="130" height="20" as="geometry" />
        </mxCell>
        <mxCell id="azlYYLiaOAXbLuff8arX-135" value="Open-source (internally hosted)" style="text;html=1;align=left;verticalAlign=middle;resizable=0;points=[];autosize=1;strokeColor=none;fillColor=none;fontSize=15;" parent="azlYYLiaOAXbLuff8arX-147" vertex="1">
          <mxGeometry x="70.00000000000003" y="100" width="230" height="20" as="geometry" />
        </mxCell>
        <mxCell id="azlYYLiaOAXbLuff8arX-134" value="" style="whiteSpace=wrap;html=1;verticalAlign=top;fillColor=#e1d5e7;strokeColor=#9673a6;aspect=fixed;" parent="azlYYLiaOAXbLuff8arX-147" vertex="1">
          <mxGeometry x="20" y="90" width="40" height="40" as="geometry" />
        </mxCell>
        <mxCell id="azlYYLiaOAXbLuff8arX-138" value="" style="whiteSpace=wrap;html=1;verticalAlign=top;fillColor=#fff2cc;strokeColor=#d6b656;aspect=fixed;" parent="azlYYLiaOAXbLuff8arX-147" vertex="1">
          <mxGeometry x="20" y="140" width="40" height="40" as="geometry" />
        </mxCell>
        <mxCell id="azlYYLiaOAXbLuff8arX-139" value="GOV.UK service/system" style="text;html=1;align=left;verticalAlign=middle;resizable=0;points=[];autosize=1;strokeColor=none;fillColor=none;fontSize=15;" parent="azlYYLiaOAXbLuff8arX-147" vertex="1">
          <mxGeometry x="70" y="150" width="180" height="20" as="geometry" />
        </mxCell>
        <mxCell id="azlYYLiaOAXbLuff8arX-141" value="Database" style="text;html=1;align=left;verticalAlign=middle;resizable=0;points=[];autosize=1;strokeColor=none;fillColor=none;fontSize=15;" parent="azlYYLiaOAXbLuff8arX-147" vertex="1">
          <mxGeometry x="70" y="200" width="80" height="20" as="geometry" />
        </mxCell>
        <mxCell id="azlYYLiaOAXbLuff8arX-140" value="" style="whiteSpace=wrap;html=1;verticalAlign=top;fillColor=#f8cecc;strokeColor=#b85450;aspect=fixed;" parent="azlYYLiaOAXbLuff8arX-147" vertex="1">
          <mxGeometry x="20" y="190" width="40" height="40" as="geometry" />
        </mxCell>
        <mxCell id="azlYYLiaOAXbLuff8arX-142" value="" style="whiteSpace=wrap;html=1;verticalAlign=top;fillColor=#d5e8d4;strokeColor=#82b366;aspect=fixed;" parent="azlYYLiaOAXbLuff8arX-147" vertex="1">
          <mxGeometry x="20" y="240" width="40" height="40" as="geometry" />
        </mxCell>
        <mxCell id="azlYYLiaOAXbLuff8arX-143" value="Library" style="text;html=1;align=left;verticalAlign=middle;resizable=0;points=[];autosize=1;strokeColor=none;fillColor=none;fontSize=15;" parent="azlYYLiaOAXbLuff8arX-147" vertex="1">
          <mxGeometry x="70" y="250" width="60" height="20" as="geometry" />
        </mxCell>
        <mxCell id="azlYYLiaOAXbLuff8arX-145" value="GiT Service" style="text;html=1;align=left;verticalAlign=middle;resizable=0;points=[];autosize=1;strokeColor=none;fillColor=none;fontSize=15;" parent="azlYYLiaOAXbLuff8arX-147" vertex="1">
          <mxGeometry x="70" y="300" width="90" height="20" as="geometry" />
        </mxCell>
        <mxCell id="azlYYLiaOAXbLuff8arX-144" value="" style="whiteSpace=wrap;html=1;verticalAlign=top;fillColor=#dae8fc;strokeColor=#6c8ebf;aspect=fixed;" parent="azlYYLiaOAXbLuff8arX-147" vertex="1">
          <mxGeometry x="20" y="290" width="40" height="40" as="geometry" />
        </mxCell>
        <mxCell id="azlYYLiaOAXbLuff8arX-65" style="edgeStyle=orthogonalEdgeStyle;orthogonalLoop=1;jettySize=auto;html=1;exitX=1;exitY=0.25;exitDx=0;exitDy=0;entryX=0.07;entryY=0.4;entryDx=0;entryDy=0;entryPerimeter=0;fontSize=15;startArrow=none;startFill=0;endArrow=classic;endFill=1;" parent="1" source="azlYYLiaOAXbLuff8arX-1" target="azlYYLiaOAXbLuff8arX-29" edge="1">
          <mxGeometry relative="1" as="geometry">
            <Array as="points">
              <mxPoint x="1560" y="1176" />
              <mxPoint x="1560" y="1000" />
            </Array>
          </mxGeometry>
        </mxCell>
        <mxCell id="azlYYLiaOAXbLuff8arX-67" style="edgeStyle=orthogonalEdgeStyle;orthogonalLoop=1;jettySize=auto;html=1;entryX=0.07;entryY=0.4;entryDx=0;entryDy=0;entryPerimeter=0;fontSize=15;startArrow=none;startFill=0;endArrow=classic;endFill=1;exitX=0.998;exitY=0.459;exitDx=0;exitDy=0;exitPerimeter=0;" parent="1" source="azlYYLiaOAXbLuff8arX-1" target="azlYYLiaOAXbLuff8arX-5" edge="1">
          <mxGeometry relative="1" as="geometry">
            <Array as="points">
              <mxPoint x="1541" y="1303" />
              <mxPoint x="1270" y="1303" />
              <mxPoint x="1270" y="1211" />
              <mxPoint x="1590" y="1211" />
              <mxPoint x="1590" y="1106" />
            </Array>
          </mxGeometry>
        </mxCell>
        <mxCell id="azlYYLiaOAXbLuff8arX-119" style="edgeStyle=orthogonalEdgeStyle;orthogonalLoop=1;jettySize=auto;html=1;exitX=0;exitY=0.75;exitDx=0;exitDy=0;entryX=1;entryY=0.75;entryDx=0;entryDy=0;fontSize=15;startArrow=none;startFill=0;endArrow=classic;endFill=1;" parent="1" source="azlYYLiaOAXbLuff8arX-1" target="azlYYLiaOAXbLuff8arX-17" edge="1">
          <mxGeometry relative="1" as="geometry" />
        </mxCell>
        <mxCell id="azlYYLiaOAXbLuff8arX-120" value="Metrics" style="edgeLabel;html=1;align=center;verticalAlign=middle;resizable=0;points=[];fontSize=15;" parent="azlYYLiaOAXbLuff8arX-119" vertex="1" connectable="0">
          <mxGeometry x="0.0217" y="-2" relative="1" as="geometry">
            <mxPoint y="1" as="offset" />
          </mxGeometry>
        </mxCell>
        <mxCell id="azlYYLiaOAXbLuff8arX-154" style="edgeStyle=orthogonalEdgeStyle;rounded=1;orthogonalLoop=1;jettySize=auto;html=1;exitX=0.933;exitY=-0.012;exitDx=0;exitDy=0;entryX=0.07;entryY=0.4;entryDx=0;entryDy=0;entryPerimeter=0;fontSize=15;startArrow=none;startFill=0;endArrow=none;endFill=0;exitPerimeter=0;" parent="1" source="azlYYLiaOAXbLuff8arX-1" target="azlYYLiaOAXbLuff8arX-128" edge="1">
          <mxGeometry relative="1" as="geometry">
            <Array as="points">
              <mxPoint x="1520" y="1131" />
              <mxPoint x="1520" y="622" />
            </Array>
          </mxGeometry>
        </mxCell>
        <mxCell id="azlYYLiaOAXbLuff8arX-1" value="&lt;b style=&quot;font-size: 15px&quot;&gt;&lt;br&gt;&lt;br&gt;&lt;br&gt;GiT API&lt;br&gt;&lt;/b&gt;&lt;br&gt;C# ASP.NET Core" style="whiteSpace=wrap;html=1;align=center;fillColor=#dae8fc;strokeColor=#6c8ebf;" parent="1" vertex="1">
          <mxGeometry x="1201.67" y="1133" width="340" height="170" as="geometry" />
        </mxCell>
        <mxCell id="azlYYLiaOAXbLuff8arX-78" style="edgeStyle=orthogonalEdgeStyle;orthogonalLoop=1;jettySize=auto;html=1;fontSize=15;startArrow=classic;startFill=1;endArrow=none;endFill=0;entryX=0.5;entryY=0;entryDx=0;entryDy=0;entryPerimeter=0;exitX=1;exitY=0.842;exitDx=0;exitDy=0;exitPerimeter=0;" parent="1" source="azlYYLiaOAXbLuff8arX-3" target="azlYYLiaOAXbLuff8arX-10" edge="1">
          <mxGeometry relative="1" as="geometry">
            <mxPoint x="1442" y="800" as="targetPoint" />
            <Array as="points">
              <mxPoint x="1190" y="650" />
              <mxPoint x="1442" y="650" />
            </Array>
            <mxPoint x="1210" y="650" as="sourcePoint" />
          </mxGeometry>
        </mxCell>
        <mxCell id="azlYYLiaOAXbLuff8arX-118" style="edgeStyle=orthogonalEdgeStyle;orthogonalLoop=1;jettySize=auto;html=1;exitX=0;exitY=0.25;exitDx=0;exitDy=0;entryX=0.5;entryY=0;entryDx=0;entryDy=0;fontSize=15;startArrow=none;startFill=0;endArrow=classic;endFill=1;" parent="1" source="azlYYLiaOAXbLuff8arX-3" target="azlYYLiaOAXbLuff8arX-17" edge="1">
          <mxGeometry relative="1" as="geometry" />
        </mxCell>
        <mxCell id="azlYYLiaOAXbLuff8arX-149" style="edgeStyle=orthogonalEdgeStyle;rounded=1;orthogonalLoop=1;jettySize=auto;html=1;exitX=1.009;exitY=0.095;exitDx=0;exitDy=0;entryX=0.07;entryY=0.4;entryDx=0;entryDy=0;entryPerimeter=0;fontSize=15;startArrow=classic;startFill=1;endArrow=none;endFill=0;exitPerimeter=0;" parent="1" source="azlYYLiaOAXbLuff8arX-3" target="azlYYLiaOAXbLuff8arX-148" edge="1">
          <mxGeometry relative="1" as="geometry">
            <Array as="points">
              <mxPoint x="1250" y="508" />
              <mxPoint x="1250" y="450" />
            </Array>
          </mxGeometry>
        </mxCell>
        <mxCell id="azlYYLiaOAXbLuff8arX-3" value="&lt;b style=&quot;font-size: 15px&quot;&gt;GiT Website&lt;br&gt;Get an Adviser&lt;br&gt;&lt;/b&gt;&lt;br&gt;Ruby on Rails" style="whiteSpace=wrap;html=1;fillColor=#dae8fc;strokeColor=#6c8ebf;verticalAlign=top;" parent="1" vertex="1">
          <mxGeometry x="960" y="490" width="230" height="190" as="geometry" />
        </mxCell>
        <mxCell id="azlYYLiaOAXbLuff8arX-5" value="GOV.UK Notify" style="ellipse;shape=cloud;whiteSpace=wrap;html=1;fillColor=#fff2cc;strokeColor=#d6b656;" parent="1" vertex="1">
          <mxGeometry x="1600" y="1066" width="141.67" height="100" as="geometry" />
        </mxCell>
        <mxCell id="azlYYLiaOAXbLuff8arX-7" value="Hangfire" style="whiteSpace=wrap;html=1;fillColor=#d5e8d4;strokeColor=#82b366;" parent="1" vertex="1">
          <mxGeometry x="1221.67" y="1153" width="60" height="40" as="geometry" />
        </mxCell>
        <mxCell id="azlYYLiaOAXbLuff8arX-8" value="EF Core" style="whiteSpace=wrap;html=1;fillColor=#d5e8d4;strokeColor=#82b366;" parent="1" vertex="1">
          <mxGeometry x="1291.67" y="1153" width="60" height="40" as="geometry" />
        </mxCell>
        <mxCell id="azlYYLiaOAXbLuff8arX-9" value="Postgres" style="shape=cylinder3;whiteSpace=wrap;html=1;boundedLbl=1;backgroundOutline=1;size=15;fillColor=#f8cecc;strokeColor=#b85450;" parent="1" vertex="1">
          <mxGeometry x="1261.67" y="950" width="60" height="80" as="geometry" />
        </mxCell>
        <mxCell id="azlYYLiaOAXbLuff8arX-10" value="Redis" style="shape=cylinder3;whiteSpace=wrap;html=1;boundedLbl=1;backgroundOutline=1;size=15;fillColor=#f8cecc;strokeColor=#b85450;" parent="1" vertex="1">
          <mxGeometry x="1411.67" y="950" width="60" height="80" as="geometry" />
        </mxCell>
        <mxCell id="azlYYLiaOAXbLuff8arX-11" value="AppSettings" style="whiteSpace=wrap;html=1;fillColor=#d5e8d4;strokeColor=#82b366;" parent="1" vertex="1">
          <mxGeometry x="1361.67" y="1153" width="80" height="40" as="geometry" />
        </mxCell>
        <mxCell id="azlYYLiaOAXbLuff8arX-32" style="edgeStyle=orthogonalEdgeStyle;orthogonalLoop=1;jettySize=auto;html=1;exitX=0.5;exitY=1;exitDx=0;exitDy=0;entryX=0.5;entryY=0;entryDx=0;entryDy=0;entryPerimeter=0;fontSize=15;startArrow=classic;startFill=1;endArrow=classic;endFill=1;" parent="1" source="azlYYLiaOAXbLuff8arX-17" target="azlYYLiaOAXbLuff8arX-31" edge="1">
          <mxGeometry relative="1" as="geometry" />
        </mxCell>
        <mxCell id="azlYYLiaOAXbLuff8arX-17" value="&lt;b&gt;&lt;font style=&quot;font-size: 15px&quot;&gt;&lt;br&gt;Prometheus&lt;/font&gt;&lt;/b&gt;" style="whiteSpace=wrap;html=1;verticalAlign=top;fillColor=#e1d5e7;strokeColor=#9673a6;" parent="1" vertex="1">
          <mxGeometry x="592.5" y="1166" width="155" height="125" as="geometry" />
        </mxCell>
        <mxCell id="azlYYLiaOAXbLuff8arX-18" value="Rate Limits" style="whiteSpace=wrap;html=1;fillColor=#d5e8d4;strokeColor=#82b366;" parent="1" vertex="1">
          <mxGeometry x="1451.67" y="1153" width="70" height="40" as="geometry" />
        </mxCell>
        <mxCell id="azlYYLiaOAXbLuff8arX-25" style="edgeStyle=orthogonalEdgeStyle;orthogonalLoop=1;jettySize=auto;html=1;exitX=1;exitY=0.5;exitDx=0;exitDy=0;entryX=0.07;entryY=0.4;entryDx=0;entryDy=0;entryPerimeter=0;startArrow=classic;startFill=1;endArrow=classic;endFill=1;" parent="1" source="azlYYLiaOAXbLuff8arX-21" target="azlYYLiaOAXbLuff8arX-23" edge="1">
          <mxGeometry relative="1" as="geometry" />
        </mxCell>
        <mxCell id="azlYYLiaOAXbLuff8arX-21" value="Dataverse&lt;br&gt;Service&lt;br&gt;Client" style="whiteSpace=wrap;html=1;fillColor=#d5e8d4;strokeColor=#82b366;" parent="1" vertex="1">
          <mxGeometry x="1451.67" y="1228" width="70" height="60" as="geometry" />
        </mxCell>
        <mxCell id="azlYYLiaOAXbLuff8arX-23" value="GiT CRM Dynamics" style="ellipse;shape=cloud;whiteSpace=wrap;html=1;fillColor=#fff2cc;strokeColor=#d6b656;" parent="1" vertex="1">
          <mxGeometry x="1620" y="1193" width="220" height="197" as="geometry" />
        </mxCell>
        <mxCell id="azlYYLiaOAXbLuff8arX-29" value="Google &lt;br&gt;Geocoding API" style="ellipse;shape=cloud;whiteSpace=wrap;html=1;fillColor=#f5f5f5;fontColor=#333333;strokeColor=#666666;" parent="1" vertex="1">
          <mxGeometry x="1600" y="960" width="141.67" height="100" as="geometry" />
        </mxCell>
        <mxCell id="azlYYLiaOAXbLuff8arX-35" style="edgeStyle=orthogonalEdgeStyle;orthogonalLoop=1;jettySize=auto;html=1;exitX=1;exitY=0.5;exitDx=0;exitDy=0;exitPerimeter=0;entryX=0;entryY=0.5;entryDx=0;entryDy=0;fontSize=15;startArrow=classic;startFill=1;endArrow=classic;endFill=1;" parent="1" source="azlYYLiaOAXbLuff8arX-31" target="azlYYLiaOAXbLuff8arX-34" edge="1">
          <mxGeometry relative="1" as="geometry" />
        </mxCell>
        <mxCell id="azlYYLiaOAXbLuff8arX-31" value="InfluxDb" style="shape=cylinder3;whiteSpace=wrap;html=1;boundedLbl=1;backgroundOutline=1;size=15;fillColor=#f8cecc;strokeColor=#b85450;" parent="1" vertex="1">
          <mxGeometry x="640" y="1356" width="60" height="80" as="geometry" />
        </mxCell>
        <mxCell id="azlYYLiaOAXbLuff8arX-34" value="Grafana" style="whiteSpace=wrap;html=1;aspect=fixed;fontStyle=1;fontSize=15;fillColor=#e1d5e7;strokeColor=#9673a6;" parent="1" vertex="1">
          <mxGeometry x="780" y="1346" width="100" height="100" as="geometry" />
        </mxCell>
        <mxCell id="azlYYLiaOAXbLuff8arX-38" style="edgeStyle=orthogonalEdgeStyle;orthogonalLoop=1;jettySize=auto;html=1;exitX=0;exitY=0.5;exitDx=0;exitDy=0;entryX=0.88;entryY=0.25;entryDx=0;entryDy=0;entryPerimeter=0;fontSize=15;startArrow=classic;startFill=1;endArrow=classic;endFill=1;" parent="1" source="azlYYLiaOAXbLuff8arX-36" target="azlYYLiaOAXbLuff8arX-37" edge="1">
          <mxGeometry relative="1" as="geometry" />
        </mxCell>
        <mxCell id="azlYYLiaOAXbLuff8arX-36" value="AlertManager" style="whiteSpace=wrap;html=1;fillColor=#d5e8d4;strokeColor=#82b366;" parent="1" vertex="1">
          <mxGeometry x="610" y="1236" width="90" height="40" as="geometry" />
        </mxCell>
        <mxCell id="azlYYLiaOAXbLuff8arX-37" value="Slack" style="ellipse;shape=cloud;whiteSpace=wrap;html=1;fillColor=#f5f5f5;fontColor=#333333;strokeColor=#666666;" parent="1" vertex="1">
          <mxGeometry x="410" y="1267.1799999999998" width="111.67" height="78.82" as="geometry" />
        </mxCell>
        <mxCell id="azlYYLiaOAXbLuff8arX-90" style="edgeStyle=orthogonalEdgeStyle;orthogonalLoop=1;jettySize=auto;html=1;exitX=1;exitY=0.25;exitDx=0;exitDy=0;entryX=0;entryY=0.5;entryDx=0;entryDy=0;entryPerimeter=0;fontSize=15;startArrow=classic;startFill=1;endArrow=none;endFill=0;" parent="1" source="azlYYLiaOAXbLuff8arX-48" target="azlYYLiaOAXbLuff8arX-89" edge="1">
          <mxGeometry relative="1" as="geometry" />
        </mxCell>
        <mxCell id="azlYYLiaOAXbLuff8arX-91" value="Cache" style="edgeLabel;html=1;align=center;verticalAlign=middle;resizable=0;points=[];fontSize=15;" parent="azlYYLiaOAXbLuff8arX-90" vertex="1" connectable="0">
          <mxGeometry x="0.0066" y="-2" relative="1" as="geometry">
            <mxPoint y="-2" as="offset" />
          </mxGeometry>
        </mxCell>
        <mxCell id="azlYYLiaOAXbLuff8arX-152" style="edgeStyle=orthogonalEdgeStyle;rounded=1;orthogonalLoop=1;jettySize=auto;html=1;exitX=1;exitY=0.75;exitDx=0;exitDy=0;entryX=0.07;entryY=0.4;entryDx=0;entryDy=0;entryPerimeter=0;fontSize=15;startArrow=classic;startFill=1;endArrow=none;endFill=0;" parent="1" source="azlYYLiaOAXbLuff8arX-48" target="azlYYLiaOAXbLuff8arX-148" edge="1">
          <mxGeometry relative="1" as="geometry">
            <Array as="points">
              <mxPoint x="1250" y="413" />
              <mxPoint x="1250" y="450" />
            </Array>
          </mxGeometry>
        </mxCell>
        <mxCell id="azlYYLiaOAXbLuff8arX-48" value="&lt;span style=&quot;font-size: 15px&quot;&gt;&lt;b&gt;&lt;br&gt;&lt;br&gt;School Experience&lt;br&gt;&lt;/b&gt;&lt;/span&gt;&lt;br&gt;Ruby on Rails" style="whiteSpace=wrap;html=1;fillColor=#dae8fc;strokeColor=#6c8ebf;" parent="1" vertex="1">
          <mxGeometry x="950" y="300" width="241.67" height="150" as="geometry" />
        </mxCell>
        <mxCell id="azlYYLiaOAXbLuff8arX-61" value="" style="endArrow=classic;startArrow=classic;html=1;fontSize=15;entryX=0.5;entryY=0;entryDx=0;entryDy=0;exitX=0.145;exitY=1;exitDx=0;exitDy=-4.35;exitPerimeter=0;" parent="1" source="azlYYLiaOAXbLuff8arX-9" target="azlYYLiaOAXbLuff8arX-7" edge="1">
          <mxGeometry width="50" height="50" relative="1" as="geometry">
            <mxPoint x="1201.67" y="1040" as="sourcePoint" />
            <mxPoint x="1381.67" y="1250" as="targetPoint" />
          </mxGeometry>
        </mxCell>
        <mxCell id="azlYYLiaOAXbLuff8arX-73" value="Jobs" style="edgeLabel;html=1;align=center;verticalAlign=middle;resizable=0;points=[];fontSize=15;" parent="azlYYLiaOAXbLuff8arX-61" vertex="1" connectable="0">
          <mxGeometry x="-0.0318" y="-2" relative="1" as="geometry">
            <mxPoint as="offset" />
          </mxGeometry>
        </mxCell>
        <mxCell id="azlYYLiaOAXbLuff8arX-62" value="" style="endArrow=classic;startArrow=classic;html=1;fontSize=15;entryX=0.5;entryY=0;entryDx=0;entryDy=0;exitX=0.855;exitY=1;exitDx=0;exitDy=-4.35;exitPerimeter=0;" parent="1" source="azlYYLiaOAXbLuff8arX-9" target="azlYYLiaOAXbLuff8arX-8" edge="1">
          <mxGeometry width="50" height="50" relative="1" as="geometry">
            <mxPoint x="1381.67" y="1040" as="sourcePoint" />
            <mxPoint x="1261.67" y="1130" as="targetPoint" />
          </mxGeometry>
        </mxCell>
        <mxCell id="azlYYLiaOAXbLuff8arX-74" value="Cache" style="edgeLabel;html=1;align=center;verticalAlign=middle;resizable=0;points=[];fontSize=15;" parent="azlYYLiaOAXbLuff8arX-62" vertex="1" connectable="0">
          <mxGeometry x="-0.0328" y="4" relative="1" as="geometry">
            <mxPoint x="-1" as="offset" />
          </mxGeometry>
        </mxCell>
        <mxCell id="azlYYLiaOAXbLuff8arX-63" value="" style="endArrow=classic;startArrow=classic;html=1;fontSize=15;exitX=0.145;exitY=1;exitDx=0;exitDy=-4.35;exitPerimeter=0;entryX=0.5;entryY=0;entryDx=0;entryDy=0;" parent="1" source="azlYYLiaOAXbLuff8arX-10" target="azlYYLiaOAXbLuff8arX-11" edge="1">
          <mxGeometry width="50" height="50" relative="1" as="geometry">
            <mxPoint x="1381.67" y="1020" as="sourcePoint" />
            <mxPoint x="1401.67" y="1120" as="targetPoint" />
          </mxGeometry>
        </mxCell>
        <mxCell id="azlYYLiaOAXbLuff8arX-64" value="" style="endArrow=classic;startArrow=classic;html=1;fontSize=15;exitX=0.855;exitY=1;exitDx=0;exitDy=-4.35;exitPerimeter=0;entryX=0.5;entryY=0;entryDx=0;entryDy=0;" parent="1" source="azlYYLiaOAXbLuff8arX-10" target="azlYYLiaOAXbLuff8arX-18" edge="1">
          <mxGeometry width="50" height="50" relative="1" as="geometry">
            <mxPoint x="1471.67" y="1050" as="sourcePoint" />
            <mxPoint x="1411.67" y="1130" as="targetPoint" />
          </mxGeometry>
        </mxCell>
        <mxCell id="azlYYLiaOAXbLuff8arX-80" value="Postgres" style="shape=cylinder3;whiteSpace=wrap;html=1;boundedLbl=1;backgroundOutline=1;size=15;fillColor=#f8cecc;strokeColor=#b85450;" parent="1" vertex="1">
          <mxGeometry x="1086.67" y="130" width="60" height="80" as="geometry" />
        </mxCell>
        <mxCell id="azlYYLiaOAXbLuff8arX-83" value="" style="endArrow=classic;startArrow=classic;html=1;fontSize=15;exitX=0.855;exitY=1;exitDx=0;exitDy=-4.35;exitPerimeter=0;" parent="1" source="azlYYLiaOAXbLuff8arX-80" edge="1">
          <mxGeometry width="50" height="50" relative="1" as="geometry">
            <mxPoint x="1191.6699999999998" y="150.0000000000001" as="sourcePoint" />
            <mxPoint x="1150" y="310" as="targetPoint" />
          </mxGeometry>
        </mxCell>
        <mxCell id="azlYYLiaOAXbLuff8arX-146" value="School&lt;br&gt;Experience" style="edgeLabel;html=1;align=center;verticalAlign=middle;resizable=0;points=[];fontSize=15;" parent="azlYYLiaOAXbLuff8arX-83" vertex="1" connectable="0">
          <mxGeometry x="-0.0134" y="1" relative="1" as="geometry">
            <mxPoint as="offset" />
          </mxGeometry>
        </mxCell>
        <mxCell id="azlYYLiaOAXbLuff8arX-84" value="Delayed Job" style="whiteSpace=wrap;html=1;fillColor=#d5e8d4;strokeColor=#82b366;" parent="1" vertex="1">
          <mxGeometry x="1053" y="313" width="60" height="40" as="geometry" />
        </mxCell>
        <mxCell id="azlYYLiaOAXbLuff8arX-86" value="" style="endArrow=classic;startArrow=classic;html=1;fontSize=15;exitX=0.145;exitY=1;exitDx=0;exitDy=-4.35;exitPerimeter=0;entryX=0.5;entryY=0;entryDx=0;entryDy=0;" parent="1" source="azlYYLiaOAXbLuff8arX-80" target="azlYYLiaOAXbLuff8arX-84" edge="1">
          <mxGeometry width="50" height="50" relative="1" as="geometry">
            <mxPoint x="1147.9700000000003" y="215.6500000000001" as="sourcePoint" />
            <mxPoint x="1164.17" y="310" as="targetPoint" />
          </mxGeometry>
        </mxCell>
        <mxCell id="azlYYLiaOAXbLuff8arX-87" value="Jobs" style="edgeLabel;html=1;align=center;verticalAlign=middle;resizable=0;points=[];fontSize=15;" parent="azlYYLiaOAXbLuff8arX-86" vertex="1" connectable="0">
          <mxGeometry x="-0.062" y="-1" relative="1" as="geometry">
            <mxPoint as="offset" />
          </mxGeometry>
        </mxCell>
        <mxCell id="azlYYLiaOAXbLuff8arX-88" value="Active&lt;br&gt;Record" style="whiteSpace=wrap;html=1;fillColor=#d5e8d4;strokeColor=#82b366;" parent="1" vertex="1">
          <mxGeometry x="1120" y="313" width="60" height="40" as="geometry" />
        </mxCell>
        <mxCell id="azlYYLiaOAXbLuff8arX-89" value="Redis" style="shape=cylinder3;whiteSpace=wrap;html=1;boundedLbl=1;backgroundOutline=1;size=15;fillColor=#f8cecc;strokeColor=#b85450;" parent="1" vertex="1">
          <mxGeometry x="1310" y="300" width="60" height="80" as="geometry" />
        </mxCell>
        <mxCell id="azlYYLiaOAXbLuff8arX-105" value="Active&lt;br&gt;Record" style="whiteSpace=wrap;html=1;fillColor=#d5e8d4;strokeColor=#82b366;" parent="1" vertex="1">
          <mxGeometry x="1110" y="630" width="60" height="40" as="geometry" />
        </mxCell>
        <mxCell id="azlYYLiaOAXbLuff8arX-68" style="edgeStyle=orthogonalEdgeStyle;orthogonalLoop=1;jettySize=auto;html=1;exitX=0.5;exitY=1;exitDx=0;exitDy=0;entryX=0;entryY=0.5;entryDx=0;entryDy=0;entryPerimeter=0;fontSize=15;startArrow=classic;startFill=1;endArrow=classic;endFill=1;" parent="1" source="azlYYLiaOAXbLuff8arX-105" target="azlYYLiaOAXbLuff8arX-9" edge="1">
          <mxGeometry relative="1" as="geometry" />
        </mxCell>
        <mxCell id="azlYYLiaOAXbLuff8arX-70" value="Feedback" style="edgeLabel;html=1;align=center;verticalAlign=middle;resizable=0;points=[];fontSize=15;" parent="azlYYLiaOAXbLuff8arX-68" vertex="1" connectable="0">
          <mxGeometry x="-0.5774" y="-1" relative="1" as="geometry">
            <mxPoint as="offset" />
          </mxGeometry>
        </mxCell>
        <mxCell id="azlYYLiaOAXbLuff8arX-112" style="edgeStyle=orthogonalEdgeStyle;orthogonalLoop=1;jettySize=auto;html=1;exitX=0;exitY=0.5;exitDx=0;exitDy=0;fontSize=15;startArrow=classic;startFill=1;endArrow=none;endFill=0;entryX=0;entryY=0.25;entryDx=0;entryDy=0;" parent="1" source="azlYYLiaOAXbLuff8arX-106" target="azlYYLiaOAXbLuff8arX-1" edge="1">
          <mxGeometry relative="1" as="geometry">
            <mxPoint x="997" y="1180" as="targetPoint" />
            <Array as="points">
              <mxPoint x="770" y="650" />
              <mxPoint x="770" y="1176" />
            </Array>
          </mxGeometry>
        </mxCell>
        <mxCell id="azlYYLiaOAXbLuff8arX-113" value="Mailing List Sign Up&lt;br&gt;Event Sign Up&lt;br&gt;Book Callback&lt;br&gt;Event Information" style="edgeLabel;html=1;align=center;verticalAlign=middle;resizable=0;points=[];fontSize=15;" parent="azlYYLiaOAXbLuff8arX-112" vertex="1" connectable="0">
          <mxGeometry x="-0.2444" y="-1" relative="1" as="geometry">
            <mxPoint x="98" y="-244" as="offset" />
          </mxGeometry>
        </mxCell>
        <mxCell id="azlYYLiaOAXbLuff8arX-106" value="API&lt;br&gt;Client" style="whiteSpace=wrap;html=1;fillColor=#d5e8d4;strokeColor=#82b366;" parent="1" vertex="1">
          <mxGeometry x="973" y="630" width="57" height="40" as="geometry" />
        </mxCell>
        <mxCell id="azlYYLiaOAXbLuff8arX-114" style="edgeStyle=orthogonalEdgeStyle;orthogonalLoop=1;jettySize=auto;html=1;exitX=0;exitY=0.5;exitDx=0;exitDy=0;fontSize=15;startArrow=classic;startFill=1;endArrow=none;endFill=0;entryX=0;entryY=0.25;entryDx=0;entryDy=0;" parent="1" source="azlYYLiaOAXbLuff8arX-108" target="azlYYLiaOAXbLuff8arX-1" edge="1">
          <mxGeometry relative="1" as="geometry">
            <mxPoint x="860" y="670" as="targetPoint" />
            <Array as="points">
              <mxPoint x="770" y="417" />
              <mxPoint x="770" y="1176" />
            </Array>
          </mxGeometry>
        </mxCell>
        <mxCell id="azlYYLiaOAXbLuff8arX-115" value="Sign Up&lt;br&gt;Candidate Data&lt;br&gt;Experience Data" style="edgeLabel;html=1;align=center;verticalAlign=middle;resizable=0;points=[];fontSize=15;" parent="azlYYLiaOAXbLuff8arX-114" vertex="1" connectable="0">
          <mxGeometry x="0.0273" y="1" relative="1" as="geometry">
            <mxPoint x="99" y="-513" as="offset" />
          </mxGeometry>
        </mxCell>
        <mxCell id="azlYYLiaOAXbLuff8arX-108" value="API&lt;br&gt;Client" style="whiteSpace=wrap;html=1;fillColor=#d5e8d4;strokeColor=#82b366;" parent="1" vertex="1">
          <mxGeometry x="973" y="397" width="47" height="40" as="geometry" />
        </mxCell>
        <mxCell id="azlYYLiaOAXbLuff8arX-110" style="edgeStyle=orthogonalEdgeStyle;orthogonalLoop=1;jettySize=auto;html=1;exitX=0.5;exitY=1;exitDx=0;exitDy=0;entryX=0;entryY=0.25;entryDx=0;entryDy=0;fontSize=15;startArrow=none;startFill=0;endArrow=classic;endFill=1;" parent="1" source="azlYYLiaOAXbLuff8arX-106" target="azlYYLiaOAXbLuff8arX-1" edge="1">
          <mxGeometry relative="1" as="geometry" />
        </mxCell>
        <mxCell id="azlYYLiaOAXbLuff8arX-111" value="Sign Up" style="edgeLabel;html=1;align=center;verticalAlign=middle;resizable=0;points=[];fontSize=15;" parent="azlYYLiaOAXbLuff8arX-110" vertex="1" connectable="0">
          <mxGeometry x="-0.2934" y="-2" relative="1" as="geometry">
            <mxPoint as="offset" />
          </mxGeometry>
        </mxCell>
        <mxCell id="azlYYLiaOAXbLuff8arX-128" value="External Monitoring Suite&lt;br&gt;&lt;br&gt;Logit.io (Kibana) / Sentry.io" style="ellipse;shape=cloud;whiteSpace=wrap;html=1;fillColor=#f5f5f5;fontColor=#333333;strokeColor=#666666;" parent="1" vertex="1">
          <mxGeometry x="1640" y="550" width="270" height="180" as="geometry" />
        </mxCell>
        <mxCell id="azlYYLiaOAXbLuff8arX-148" value="Google Maps" style="ellipse;shape=cloud;whiteSpace=wrap;html=1;fillColor=#f5f5f5;fontColor=#333333;strokeColor=#666666;" parent="1" vertex="1">
          <mxGeometry x="1291.67" y="410" width="141.67" height="100" as="geometry" />
        </mxCell>
        <mxCell id="azlYYLiaOAXbLuff8arX-151" value="Wizard" style="whiteSpace=wrap;html=1;fillColor=#d5e8d4;strokeColor=#82b366;" parent="1" vertex="1">
          <mxGeometry x="1040" y="630" width="57" height="40" as="geometry" />
        </mxCell>
        <mxCell id="azlYYLiaOAXbLuff8arX-124" style="edgeStyle=orthogonalEdgeStyle;orthogonalLoop=1;jettySize=auto;html=1;exitX=1.009;exitY=0.695;exitDx=0;exitDy=0;fontSize=15;startArrow=none;startFill=0;endArrow=classic;endFill=1;entryX=0.07;entryY=0.4;entryDx=0;entryDy=0;entryPerimeter=0;exitPerimeter=0;" parent="1" source="azlYYLiaOAXbLuff8arX-3" target="azlYYLiaOAXbLuff8arX-128" edge="1">
          <mxGeometry relative="1" as="geometry">
            <mxPoint x="1460" y="585" as="targetPoint" />
          </mxGeometry>
        </mxCell>
        <mxCell id="azlYYLiaOAXbLuff8arX-133" value="Logs/Errors" style="edgeLabel;html=1;align=center;verticalAlign=middle;resizable=0;points=[];fontSize=15;" parent="azlYYLiaOAXbLuff8arX-124" vertex="1" connectable="0">
          <mxGeometry x="0.6482" y="2" relative="1" as="geometry">
            <mxPoint x="7" as="offset" />
          </mxGeometry>
        </mxCell>
        <mxCell id="F0voYqfVPytVJyNhw2S8-1" value="Google&lt;br&gt;Big Query" style="ellipse;shape=cloud;whiteSpace=wrap;html=1;fillColor=#f5f5f5;fontColor=#333333;strokeColor=#666666;" parent="1" vertex="1">
          <mxGeometry x="1620.0000000000002" y="1480" width="141.67" height="100" as="geometry" />
        </mxCell>
        <mxCell id="JabGMXBnKtXuS10o21C--1" value="&lt;span style=&quot;font-size: 15px&quot;&gt;&lt;b&gt;&lt;br&gt;GIT Server&lt;br&gt;&lt;/b&gt;&lt;/span&gt;&lt;br&gt;C# .NET" style="whiteSpace=wrap;html=1;verticalAlign=top;fillColor=#dae8fc;strokeColor=#6c8ebf;" parent="1" vertex="1">
          <mxGeometry x="1240" y="1346" width="290" height="135" as="geometry" />
        </mxCell>
        <mxCell id="JabGMXBnKtXuS10o21C--2" value="GalaxKey" style="whiteSpace=wrap;html=1;fillColor=#d5e8d4;strokeColor=#82b366;" parent="1" vertex="1">
          <mxGeometry x="1270" y="1430" width="60.17" height="40" as="geometry" />
        </mxCell>
        <mxCell id="JabGMXBnKtXuS10o21C--4" value="ADO.net" style="whiteSpace=wrap;html=1;fillColor=#d5e8d4;strokeColor=#82b366;" parent="1" vertex="1">
          <mxGeometry x="1451.67" y="1430" width="60.17" height="40" as="geometry" />
        </mxCell>
        <mxCell id="JabGMXBnKtXuS10o21C--5" style="edgeStyle=orthogonalEdgeStyle;orthogonalLoop=1;jettySize=auto;html=1;startArrow=classic;startFill=1;endArrow=classic;endFill=1;entryX=0.095;entryY=0.711;entryDx=0;entryDy=0;entryPerimeter=0;exitX=1;exitY=0.5;exitDx=0;exitDy=0;" parent="1" source="JabGMXBnKtXuS10o21C--4" target="azlYYLiaOAXbLuff8arX-23" edge="1">
          <mxGeometry relative="1" as="geometry">
            <mxPoint x="1560" y="1430" as="sourcePoint" />
            <mxPoint x="1640" y="1430.0000000000002" as="targetPoint" />
            <Array as="points">
              <mxPoint x="1560" y="1450" />
              <mxPoint x="1560" y="1333" />
            </Array>
          </mxGeometry>
        </mxCell>
        <mxCell id="JabGMXBnKtXuS10o21C--10" value="Advisors&lt;br&gt;Marketing" style="edgeLabel;html=1;align=center;verticalAlign=middle;resizable=0;points=[];fontSize=15;" parent="1" vertex="1" connectable="0">
          <mxGeometry x="1900" y="1160" as="geometry">
            <mxPoint x="-55" y="11" as="offset" />
          </mxGeometry>
        </mxCell>
        <mxCell id="JabGMXBnKtXuS10o21C--12" value="" style="endArrow=classic;startArrow=classic;html=1;rounded=0;" parent="1" edge="1">
          <mxGeometry width="50" height="50" relative="1" as="geometry">
            <mxPoint x="1750" y="1220" as="sourcePoint" />
            <mxPoint x="1810" y="1170" as="targetPoint" />
          </mxGeometry>
        </mxCell>
        <mxCell id="JabGMXBnKtXuS10o21C--13" value="Google&lt;br&gt;BigQuery API" style="whiteSpace=wrap;html=1;fillColor=#d5e8d4;strokeColor=#82b366;" parent="1" vertex="1">
          <mxGeometry x="1351.5" y="1430" width="81.84" height="40" as="geometry" />
        </mxCell>
        <mxCell id="JabGMXBnKtXuS10o21C--14" style="edgeStyle=orthogonalEdgeStyle;orthogonalLoop=1;jettySize=auto;html=1;entryX=0.07;entryY=0.4;entryDx=0;entryDy=0;entryPerimeter=0;startArrow=none;startFill=0;endArrow=classic;endFill=1;exitX=0.5;exitY=1;exitDx=0;exitDy=0;" parent="1" source="JabGMXBnKtXuS10o21C--13" target="F0voYqfVPytVJyNhw2S8-1" edge="1">
          <mxGeometry relative="1" as="geometry">
            <mxPoint x="1390" y="1490" as="sourcePoint" />
            <mxPoint x="1538.6200000000001" y="1530.0000000000002" as="targetPoint" />
            <Array as="points">
              <mxPoint x="1392" y="1520" />
            </Array>
          </mxGeometry>
        </mxCell>
        <mxCell id="JabGMXBnKtXuS10o21C--15" value="File Uploads" style="edgeLabel;html=1;align=center;verticalAlign=middle;resizable=0;points=[];fontSize=15;" parent="1" vertex="1" connectable="0">
          <mxGeometry x="1170" y="1436" as="geometry">
            <mxPoint x="-55" y="11" as="offset" />
          </mxGeometry>
        </mxCell>
        <mxCell id="JabGMXBnKtXuS10o21C--16" value="" style="endArrow=classic;html=1;rounded=0;" parent="1" target="JabGMXBnKtXuS10o21C--2" edge="1">
          <mxGeometry width="50" height="50" relative="1" as="geometry">
            <mxPoint x="1160" y="1450" as="sourcePoint" />
            <mxPoint x="1210" y="1396" as="targetPoint" />
          </mxGeometry>
        </mxCell>
        <mxCell id="VQJhVXHdlUJEQv-9IwC7-3" value="Google BigQuery API" style="whiteSpace=wrap;html=1;fillColor=#d5e8d4;strokeColor=#82b366;" vertex="1" parent="1">
          <mxGeometry x="1087" y="570" width="83" height="40" as="geometry" />
        </mxCell>
        <mxCell id="VQJhVXHdlUJEQv-9IwC7-4" value="Google&lt;br&gt;Big Query" style="ellipse;shape=cloud;whiteSpace=wrap;html=1;fillColor=#f5f5f5;fontColor=#333333;strokeColor=#666666;" vertex="1" parent="1">
          <mxGeometry x="1294.85" y="520" width="105.15" height="80" as="geometry" />
        </mxCell>
        <mxCell id="VQJhVXHdlUJEQv-9IwC7-5" style="edgeStyle=orthogonalEdgeStyle;orthogonalLoop=1;jettySize=auto;html=1;entryX=0.07;entryY=0.4;entryDx=0;entryDy=0;entryPerimeter=0;startArrow=none;startFill=0;endArrow=classic;endFill=1;exitX=1;exitY=0.5;exitDx=0;exitDy=0;" edge="1" parent="1" target="VQJhVXHdlUJEQv-9IwC7-4" source="VQJhVXHdlUJEQv-9IwC7-3">
          <mxGeometry relative="1" as="geometry">
            <mxPoint x="1066.85" y="510" as="sourcePoint" />
            <mxPoint x="1213.47" y="570.0000000000002" as="targetPoint" />
            <Array as="points">
              <mxPoint x="1240" y="590" />
              <mxPoint x="1240" y="552" />
            </Array>
          </mxGeometry>
        </mxCell>
        <mxCell id="VQJhVXHdlUJEQv-9IwC7-6" value="Google BigQuery API" style="whiteSpace=wrap;html=1;fillColor=#d5e8d4;strokeColor=#82b366;" vertex="1" parent="1">
          <mxGeometry x="960" y="313" width="83" height="40" as="geometry" />
        </mxCell>
        <mxCell id="VQJhVXHdlUJEQv-9IwC7-7" value="Google&lt;br&gt;Big Query" style="ellipse;shape=cloud;whiteSpace=wrap;html=1;fillColor=#f5f5f5;fontColor=#333333;strokeColor=#666666;" vertex="1" parent="1">
          <mxGeometry x="943.93" y="140" width="105.15" height="80" as="geometry" />
        </mxCell>
        <mxCell id="VQJhVXHdlUJEQv-9IwC7-8" style="edgeStyle=orthogonalEdgeStyle;orthogonalLoop=1;jettySize=auto;html=1;entryX=0.55;entryY=0.95;entryDx=0;entryDy=0;entryPerimeter=0;startArrow=none;startFill=0;endArrow=classic;endFill=1;exitX=0.5;exitY=0;exitDx=0;exitDy=0;" edge="1" parent="1" source="VQJhVXHdlUJEQv-9IwC7-6" target="VQJhVXHdlUJEQv-9IwC7-7">
          <mxGeometry relative="1" as="geometry">
            <mxPoint x="870" y="278" as="sourcePoint" />
            <mxPoint x="1002" y="240" as="targetPoint" />
            <Array as="points" />
          </mxGeometry>
        </mxCell>
      </root>
    </mxGraphModel>
  </diagram>
</mxfile>
